<svg xmlns="http://www.w3.org/2000/svg" width="36.24" height="33.44" viewBox="0 0 36.24 33.44">
  <g id="Group_18" data-name="Group 18" transform="translate(-0.001)">
    <path id="Path_22" data-name="Path 22" d="M29.7,31.388V33.44H28.44V31.388h-.206c-.015,0-.032,0-.05,0H8.34a.568.568,0,0,1-.071,0H7.739V33.44H6.474V31.394H5.745v0A2.6,2.6,0,0,1,4,30.869a2.334,2.334,0,0,1-.734-1.828v-.029l0-9.2a5.81,5.81,0,0,1-1.5-.646,3.3,3.3,0,0,1-1.289-1.43,4.112,4.112,0,0,1,.622-4.786,4.716,4.716,0,0,1,1.775-1.156,4.919,4.919,0,0,1,2.1-.3,4.384,4.384,0,0,1,1.533.4V5.523c0-2.619.392-3.984,1.4-4.748C8.9.029,10.322,0,12.475,0H23.745c2.341,0,3.763.091,4.7.929S29.658,3.2,29.658,5.859v6.269a4.684,4.684,0,0,1,2.055-.442,5.18,5.18,0,0,1,1.982.413,4.569,4.569,0,0,1,1.622,1.159,3.831,3.831,0,0,1,.377,4.5,3.6,3.6,0,0,1-1.28,1.389,5.706,5.706,0,0,1-1.5.663V29.02h0v.015a2.33,2.33,0,0,1-.734,1.828,2.615,2.615,0,0,1-1.743.522v0ZM7.777,12.839a4.538,4.538,0,0,1,.914,1.684A5.211,5.211,0,0,1,8.9,15.585a6.435,6.435,0,0,1,0,1.191v1.69H27.287V16.75a7.326,7.326,0,0,1-.021-1.156,3.642,3.642,0,0,1,.245-1.118,4.624,4.624,0,0,1,.882-1.413v-7.2c0-2.271-.177-3.447-.787-3.993s-1.825-.6-3.86-.6H12.475c-1.893,0-3.138.021-3.8.522-.646.487-.9,1.566-.9,3.739v7.313Zm1.118,6.892v2.126H27.287V19.731ZM6.8,13.656a.62.62,0,0,1-.186-.186,2.893,2.893,0,0,0-1.728-.722,3.686,3.686,0,0,0-1.566.224,3.453,3.453,0,0,0-1.3.846,2.921,2.921,0,0,0-.389,3.394,2.1,2.1,0,0,0,.82.888,5.025,5.025,0,0,0,1.589.607h0a.633.633,0,0,1,.492.616l0,9.69a1.174,1.174,0,0,0,.289.9,1.444,1.444,0,0,0,.929.224v0H7.217a.568.568,0,0,1,.071,0h.345l0-13.364a.522.522,0,0,1,0-.068,5.3,5.3,0,0,0,0-.991,3.849,3.849,0,0,0-.156-.808A3.179,3.179,0,0,0,6.8,13.656ZM28.552,18.9a.617.617,0,0,1,.032.2.631.631,0,0,1-.032.2V22.35a.563.563,0,0,1,.015.142.743.743,0,0,1-.015.142v7.493h1.884v0a1.455,1.455,0,0,0,.929-.224,1.163,1.163,0,0,0,.289-.882h0v-9.7a.632.632,0,0,1,.54-.625,4.771,4.771,0,0,0,1.533-.607,2.378,2.378,0,0,0,.84-.9,2.631,2.631,0,0,0-.2-3.1,3.273,3.273,0,0,0-1.171-.829,3.911,3.911,0,0,0-1.492-.316,3.115,3.115,0,0,0-3.02,2,2.383,2.383,0,0,0-.153.737,6.205,6.205,0,0,0,.021,1.011.357.357,0,0,1,0,.056h0V18.9ZM8.892,30.126h18.4v-7H8.892v7Z" transform="translate(0 0)" fill="#6f4813"/>
  </g>
</svg>
