<svg xmlns="http://www.w3.org/2000/svg" xmlns:xlink="http://www.w3.org/1999/xlink" width="31" height="31" viewBox="0 0 31 31">
  <defs>
    <clipPath id="clip-path">
      <rect id="Rectangle_133" data-name="Rectangle 133" width="31" height="31" transform="translate(0.265 -0.318)" fill="#06a300"/>
    </clipPath>
  </defs>
  <g id="Mask_Group_23" data-name="Mask Group 23" transform="translate(-0.265 0.318)" clip-path="url(#clip-path)">
    <g id="text-documents-line_1_" data-name="text-documents-line (1)" transform="translate(1.445 0.261)">
      <path id="Path_20" data-name="Path 20" d="M5.417,15.619a.8.8,0,0,1,0-1.587h6.2a.8.8,0,0,1,0,1.587ZM23.221,4.81h2.594a1.86,1.86,0,0,1,1.855,1.855v22.04a1.86,1.86,0,0,1-1.855,1.855H6.3a1.86,1.86,0,0,1-1.855-1.855V25.751H1.855A1.86,1.86,0,0,1,0,23.9V1.855A1.86,1.86,0,0,1,1.855,0H21.366a1.86,1.86,0,0,1,1.855,1.855V4.81ZM6.039,25.751v2.955a.257.257,0,0,0,.08.187.262.262,0,0,0,.187.08H25.815a.257.257,0,0,0,.187-.08.262.262,0,0,0,.08-.187V6.665A.257.257,0,0,0,26,6.479a.262.262,0,0,0-.187-.08H23.221V23.893a1.86,1.86,0,0,1-1.855,1.855H6.039ZM21.366,1.589H1.855a.257.257,0,0,0-.187.08.262.262,0,0,0-.08.187V23.9a.257.257,0,0,0,.08.187.262.262,0,0,0,.187.08H21.366a.257.257,0,0,0,.187-.08.262.262,0,0,0,.08-.187V1.855a.272.272,0,0,0-.266-.266ZM5.417,7.123a.761.761,0,0,1-.724-.793.761.761,0,0,1,.724-.793H17.8a.761.761,0,0,1,.724.793.761.761,0,0,1-.724.793Zm0,4.248a.8.8,0,0,1,0-1.587H17.8a.8.8,0,0,1,0,1.587Z" fill="#06a300"/>
    </g>
  </g>
</svg>
