<svg xmlns="http://www.w3.org/2000/svg" width="35.471" height="31" viewBox="0 0 35.471 31">
  <path id="Path_21" data-name="Path 21" d="M17.542,4.943c2.309-2.41,3.931-4.494,7.5-4.906,6.687-.762,12.826,6.084,9.449,12.823a21.459,21.459,0,0,1-2.955,4.133v-.176H22.881l-.306.317L21.2,18.559l-2.851-5.484L17.4,11.258,16.494,13.1l-2.6,5.241-2.546-3.714-.9-1.3-2.02,3.29H3.16A14.578,14.578,0,0,1-.014,8.625C-.2,3.373,3.948.008,8.716.071,12.976.126,14.777,2.244,17.542,4.943ZM29.8,18.894l-.378.407c-2.375,2.459-5,4.869-6.846,6.7l-5.022,4.981-4.162-3.994C10.866,24.548,7.53,21.789,4.82,18.7H9.565l.306-.5.67-1.085L13.2,20.978l1,1.443.788-1.573,2.447-4.99,2.566,4.935.664,1.279,1-1.019,2.078-2.141Z" transform="translate(0.02 0.022)" fill="#ed1b24" fill-rule="evenodd"/>
</svg>
