<svg xmlns="http://www.w3.org/2000/svg" xmlns:xlink="http://www.w3.org/1999/xlink" width="149" height="150" viewBox="0 0 149 150">
  <defs>
    <linearGradient id="linear-gradient" x1="-0.451" y1="0.976" x2="0.549" y2="0.976" gradientUnits="objectBoundingBox">
      <stop offset="0" stop-color="#fff"/>
      <stop offset="0.999" stop-color="#e1e9ff"/>
    </linearGradient>
    <clipPath id="clip-path">
      <rect id="Rectangle_55" data-name="Rectangle 55" width="149" height="150" transform="translate(0 0)" fill="none"/>
    </clipPath>
    <linearGradient id="linear-gradient-2" x1="-0.032" y1="0.942" x2="1.052" y2="0.074" gradientUnits="objectBoundingBox">
      <stop offset="0.002" stop-color="#27348b"/>
      <stop offset="0.995" stop-color="#3ecbff"/>
    </linearGradient>
  </defs>
  <g id="Group_8" data-name="Group 8" transform="translate(-413.413 -345.486)">
    <rect id="Rectangle_54" data-name="Rectangle 54" width="139.743" height="112.19" transform="translate(544.103 349.839) rotate(90)" fill="url(#linear-gradient)"/>
    <g id="Group_7" data-name="Group 7" transform="translate(413.413 345.486)">
      <g id="Group_6" data-name="Group 6" clip-path="url(#clip-path)">
        <g id="Mask_Group_5" data-name="Mask Group 5" transform="translate(14.52 0.11)">
          <path id="report" d="M533.331,495.489H439.724a8.4,8.4,0,0,1-8.4-8.39V353.973a8.329,8.329,0,0,1,8.306-8.351H542.941a8.416,8.416,0,0,1,8.4,8.4V459.144h0V471.78h0v23.676Zm10.784-7.172v-16.7h0v-117.6h0a1.187,1.187,0,0,0-1.173-1.187H439.724a1.147,1.147,0,0,0-1.216,1.073,1.424,1.424,0,0,0,0,.143V487.1h0a1.187,1.187,0,0,0,1.183,1.171H544.115Zm-89.621-15.855.435-7.923h44.027l-.435,7.922Zm0-20.087v-7.489h67.519l.435,7.043-67.519.061Zm67.459-28.7v7.452h-10.6v-7.452Zm-18.522-7.057v14.013h-10.6V416.621Zm-18.939-20.074V430.7h-10.6v-34.15ZM465.539,382.5v48.139h-10.61V382.5Zm50.107.764,17.148.061a17.228,17.228,0,0,1-5.108,12.2,17.417,17.417,0,0,1-2.453,2Zm-1.756-3.405-.927-18.292a.659.659,0,0,1,.633-.683h0c4.768-.486,10.343,1.8,13.831,5a19.053,19.053,0,0,1,6.1,12.672.658.658,0,0,1-.61.695l-18.294,1.321a.658.658,0,0,1-.695-.61h0Zm1.939-1.3,15.06-1.387c-1.1-8.062-7.135-13.879-15.855-14.538Zm-4.013,3.915,9.2,15.86a18.379,18.379,0,1,1-11.867-34.152Z" transform="translate(-431.321 -345.622)" fill="url(#linear-gradient-2)"/>
        </g>
      </g>
    </g>
  </g>
</svg>
