<svg xmlns="http://www.w3.org/2000/svg" xmlns:xlink="http://www.w3.org/1999/xlink" width="149" height="150" viewBox="0 0 149 150">
  <defs>
    <linearGradient id="linear-gradient" x1="-0.579" y1="4.542" x2="0.098" y2="4.542" gradientUnits="objectBoundingBox">
      <stop offset="0" stop-color="#fff"/>
      <stop offset="0.999" stop-color="#e1e9ff"/>
    </linearGradient>
    <clipPath id="clip-path">
      <rect id="Rectangle_56" data-name="Rectangle 56" width="149" height="150" transform="translate(0 0)" fill="none"/>
    </clipPath>
    <linearGradient id="linear-gradient-2" x1="0.061" y1="0.958" x2="0.869" y2="0.117" gradientUnits="objectBoundingBox">
      <stop offset="0.002" stop-color="#27348b"/>
      <stop offset="0.997" stop-color="#3ecbff"/>
    </linearGradient>
  </defs>
  <g id="Group_11" data-name="Group 11" transform="translate(-232.482 -83.345)">
    <path id="Path_1" data-name="Path 1" d="M232.483,220.138V152a13.4,13.4,0,0,1,13.4-13.4h103.68a13.36,13.36,0,0,1,9.477,3.925A12.943,12.943,0,0,1,362.968,152c-.278,15.8-.311,21,0,31.76.149,5.184,4.978,2.411,9.1,7.725,6.577,8.478,6.084,21.008,2.377,29.712-1.185,2.784-3.638,8.335-9.508,11.885a23.034,23.034,0,0,1-8.913,2.972,33.975,33.975,0,0,1-18.422-2.511H245.885A13.4,13.4,0,0,1,232.483,220.138Z" transform="translate(0 -10.453)" fill="url(#linear-gradient)"/>
    <g id="Group_10" data-name="Group 10" transform="translate(232.483 83.345)">
      <g id="Group_9" data-name="Group 9" clip-path="url(#clip-path)">
        <g id="Mask_Group_7" data-name="Mask Group 7" transform="translate(-0.402 3.201)">
          <path id="schedule" d="M348.488,164.852a33.354,33.354,0,1,1-33.342,33.367V198.2A33.354,33.354,0,0,1,348.488,164.852Zm-29.2-72.684c0-2.719,2.694-4.875,6.025-4.875s6.024,2.219,6.024,4.939v22.923c0,2.732-2.7,4.939-6.024,4.939s-6.024-2.207-6.024-4.939Zm-53.977,0c0-2.719,2.7-4.875,6.025-4.875s6.036,2.219,6.036,4.939v22.923c0,2.732-2.707,5-6.036,5s-6.024-2.207-6.024-4.939V92.168Zm25.211,89.77h14.631a46.329,46.329,0,0,0-2.9,16.268,30.382,30.382,0,0,0,.109,3.169H290.528a2.292,2.292,0,0,1-2.281-2.281V184.215a2.293,2.293,0,0,1,2.281-2.281Zm36.095-31.644h17.891a2.306,2.306,0,0,1,2.2,1.7,46.053,46.053,0,0,0-22.378,6.769v-6.205A2.28,2.28,0,0,1,326.622,150.293Zm-36.095,0h17.9a2.282,2.282,0,0,1,2.281,2.27v14.886a2.306,2.306,0,0,1-2.281,2.281h-17.9a2.292,2.292,0,0,1-2.281-2.281v-14.89A2.293,2.293,0,0,1,290.528,150.293Zm-36.074,0h17.9a2.282,2.282,0,0,1,2.316,2.244v14.912a2.306,2.306,0,0,1-2.281,2.281h-17.93a2.28,2.28,0,0,1-2.281-2.281h0v-14.89a2.281,2.281,0,0,1,2.281-2.27Zm0,31.647h17.9a2.282,2.282,0,0,1,2.316,2.244c0,.012,0,.024,0,.036V199.1a2.3,2.3,0,0,1-2.317,2.281H254.463a2.28,2.28,0,0,1-2.281-2.281h0V184.221a2.281,2.281,0,0,1,2.281-2.281h-.009Zm55.464,41.781H244.473a12.537,12.537,0,0,1-12.486-12.491V112.278a12.55,12.55,0,0,1,12.486-12.486h11.514v15.364a13.706,13.706,0,0,0,5.195,10.671,16.159,16.159,0,0,0,20.329,0,13.711,13.711,0,0,0,5.195-10.671V99.79h23.257v15.366a13.693,13.693,0,0,0,5.183,10.671,16.17,16.17,0,0,0,20.342,0,13.731,13.731,0,0,0,5.183-10.671V99.79h12.046A12.537,12.537,0,0,1,365.2,112.277v42.795a47,47,0,0,0-5.329-1.708V135.937H237.316v72.635a9.853,9.853,0,0,0,9.817,9.756h59.757a48.779,48.779,0,0,0,3.049,5.329Zm33.952-42.306h4.074a1.367,1.367,0,0,1,1.366,1.366v15.708H363.7a1.367,1.367,0,0,1,1.366,1.354v4.086a1.367,1.367,0,0,1-1.366,1.354H342.513v-22.5a1.367,1.367,0,0,1,1.354-1.366Zm4.622-8.988a25.784,25.784,0,1,1-25.775,25.793V198.2a25.784,25.784,0,0,1,25.772-25.773Z" transform="translate(-231.987 -87.293)" fill-rule="evenodd" fill="url(#linear-gradient-2)"/>
        </g>
      </g>
    </g>
  </g>
</svg>
