<svg xmlns="http://www.w3.org/2000/svg" xmlns:xlink="http://www.w3.org/1999/xlink" width="150" height="150" viewBox="0 0 150 150">
  <defs>
    <clipPath id="clip-path">
      <rect id="Rectangle_53" data-name="Rectangle 53" width="150" height="150" fill="none"/>
    </clipPath>
    <linearGradient id="linear-gradient" x1="0.998" y1="-0.002" x2="0.001" y2="1.029" gradientUnits="objectBoundingBox">
      <stop offset="0" stop-color="#3ecbff"/>
      <stop offset="1" stop-color="#27348b"/>
    </linearGradient>
  </defs>
  <g id="Group_3" data-name="Group 3" clip-path="url(#clip-path)">
    <g id="Mask_Group_4" data-name="Mask Group 4" transform="translate(16.31 0.19)">
      <g id="Group_2" data-name="Group 2">
        <path id="checklist" d="M472.96,413.6v6.1a3.074,3.074,0,0,1-2.781,3.049,3.481,3.481,0,0,1-1.086.171H457.76v12.637H514.7V422.965H503.377a3.427,3.427,0,0,1-1.086-.171,3.073,3.073,0,0,1-2.769-3.1v-6.1ZM450.2,467.567a2.747,2.747,0,0,1,4.559-3.061l1.5,2.22,5.939-7.216A2.747,2.747,0,0,1,466.444,463l-8.193,10a2.444,2.444,0,0,1-.658.61,2.733,2.733,0,0,1-3.795-.727l-.011-.017Zm0,28.393a2.757,2.757,0,1,1,4.416-3.3c.052.07.1.141.146.215l1.5,2.22,5.939-7.232a2.747,2.747,0,1,1,4.315,3.4c-.023.029-.047.058-.071.086l-8.2,10.062a2.293,2.293,0,0,1-.658.622,2.731,2.731,0,0,1-3.792-.737l-.013-.019Zm0,29.513a2.747,2.747,0,1,1,4.532-3.1l.029.043,1.5,2.232,5.939-7.232a2.756,2.756,0,1,1,4.379,3.349c-.043.057-.088.111-.135.164l-8.2,9.982a2.444,2.444,0,0,1-.658.61,2.733,2.733,0,0,1-3.795-.727l-.011-.017Zm6.1-83.629a4.7,4.7,0,0,1-3.268-1.354c-.109-.109-.171-.22-.281-.329a4.8,4.8,0,0,1-1.086-2.939v-6.208H434.591a.6.6,0,0,0-.486.22.813.813,0,0,0-.22.486V550.512a.51.51,0,0,0,.22.486.681.681,0,0,0,.486.22H537.917a.683.683,0,0,0,.487-.22.539.539,0,0,0,.22-.486V431.723a.819.819,0,0,0-.22-.486.609.609,0,0,0-.487-.22H520.841v6.208a4.751,4.751,0,0,1-1.1,2.939c-.1.109-.162.22-.268.329a4.7,4.7,0,0,1-3.268,1.354Zm-22.087,115.6a6.867,6.867,0,0,1-6.855-6.855V431.8a6.867,6.867,0,0,1,6.855-6.855h17.075V421.57a4.622,4.622,0,0,1,4.61-4.622H466.46V412.7a5.209,5.209,0,0,1,5.11-5.123h28.541a5.206,5.206,0,0,1,5.11,5.184v4.183h10.562a4.622,4.622,0,0,1,4.622,4.622v3.379h17.075a6.867,6.867,0,0,1,6.867,6.855V550.6a6.867,6.867,0,0,1-6.867,6.855Zm86.69-28.473a3.11,3.11,0,0,0,0-6.208H479.668a3.11,3.11,0,0,0,0,6.208H520.9Zm0-59.518a3.11,3.11,0,0,0,0-6.208H479.668a3.11,3.11,0,0,0,0,6.208Zm0,29.356a3.11,3.11,0,0,0,0-6.208H479.668a3.11,3.11,0,0,0,0,6.208Z" transform="translate(-427.359 -407.581)" fill="url(#linear-gradient)"/>
      </g>
    </g>
  </g>
</svg>
