<svg xmlns="http://www.w3.org/2000/svg" width="25.684" height="33.44" viewBox="0 0 25.684 33.44">
  <path id="Path_23" data-name="Path 23" d="M2.374,12.438h.788V10.063A10.236,10.236,0,0,1,5.995,2.968a9.382,9.382,0,0,1,13.7,0,10.237,10.237,0,0,1,2.833,7.094v2.375h.788a2.379,2.379,0,0,1,2.374,2.374V31.067a2.379,2.379,0,0,1-2.374,2.374H2.374A2.379,2.379,0,0,1,0,31.067V14.812a2.379,2.379,0,0,1,2.374-2.374Zm9.6,11.32-1.14,2.988h4.017l-1.057-3.029a2.081,2.081,0,1,0-1.82.041ZM4.831,12.438H20.853V10.063a8.565,8.565,0,0,0-2.364-5.94,7.728,7.728,0,0,0-11.295,0,8.566,8.566,0,0,0-2.364,5.94v2.376Zm18.48,1.67H2.374a.708.708,0,0,0-.7.7V31.067a.708.708,0,0,0,.7.7H23.311a.708.708,0,0,0,.7-.7V14.812a.708.708,0,0,0-.7-.7Z" fill="#e3bb14"/>
</svg>
