<svg id="Group_17" data-name="Group 17" xmlns="http://www.w3.org/2000/svg" width="34.703" height="30.527" viewBox="0 0 34.703 30.527">
  <path id="Path_10" data-name="Path 10" d="M32.391,18.553h-2.84V15.815h2.823a15.026,15.026,0,0,0-3.952-8.793L26.89,8.555,24.965,6.616,26.4,5.185A15.02,15.02,0,0,0,18.3,2.2v2H15.565V2.28a15.026,15.026,0,0,0-7.9,3.432l1.5,1.5L7.23,9.148,5.737,7.654A15.007,15.007,0,0,0,2.35,15.809H4.811v2.744H2.319a15.014,15.014,0,0,0,3.288,8.186l2.086-2.086,1.934,1.934L7.51,28.7l.028.023L6.078,30.419a17.35,17.35,0,1,1,23.008-.378L28.1,28.966h0l-2.4-2.377,1.934-1.934L29.368,26.4a15.2,15.2,0,0,0,1.809-3.068,15,15,0,0,0,1.214-4.8ZM17.355,11.5a5.044,5.044,0,0,1,1.019.1L15.2,13.989a.865.865,0,0,0-.11.093,3.259,3.259,0,0,0-1.194,3.432,3.338,3.338,0,0,0,.881,1.5,3.262,3.262,0,0,0,1.538.847,3.534,3.534,0,0,0,3.669-1.521.922.922,0,0,0,.076-.107l2.2-3.026a5.077,5.077,0,1,1-4.906-3.743Z" transform="translate(-0.017 0.107)" fill="#60f"/>
  <path id="Path_11" data-name="Path 11" d="M62.049,30.71,53.745,37c-2.67,2.14.79,5.86,3.223,2.778l6-8.239Z" transform="translate(-37.887 -22.011)" fill="#60f" fill-rule="evenodd"/>
</svg>
