<svg xmlns="http://www.w3.org/2000/svg" width="33.043" height="30.526" viewBox="0 0 33.043 30.526">
  <path id="Path_8" data-name="Path 8" d="M19.332,27.042q-1.038,1.027-2.251,2.052c.339-.046.678-.1,1.006-.167a13.287,13.287,0,0,0,1.9-.538c.038.059.075.116.116.172.1.137.191.253.269.342h0a4.406,4.406,0,0,0,.573.538,14.874,14.874,0,0,1-2.616.785,15.8,15.8,0,0,1-6.139,0,14.4,14.4,0,0,1-2.85-.879.069.069,0,0,1-.038-.019,16.723,16.723,0,0,1-2.582-1.39,14.635,14.635,0,0,1-2.259-1.853,14.166,14.166,0,0,1-1.853-2.253A16.072,16.072,0,0,1,1.2,21.244a15,15,0,0,1-.9-2.9,15.8,15.8,0,0,1,0-6.139,14.205,14.205,0,0,1,.882-2.85A.087.087,0,0,1,1.2,9.318,16.214,16.214,0,0,1,2.611,6.723,14.515,14.515,0,0,1,4.464,4.467,14.024,14.024,0,0,1,6.723,2.611,16.064,16.064,0,0,1,9.323,1.2,14.658,14.658,0,0,1,12.206.3a15.8,15.8,0,0,1,6.139,0,14.478,14.478,0,0,1,2.85.879.073.073,0,0,1,.035.019,16.592,16.592,0,0,1,2.6,1.412,14.628,14.628,0,0,1,2.251,1.85,14.051,14.051,0,0,1,1.853,2.262,15.642,15.642,0,0,1,1.412,2.6,14.648,14.648,0,0,1,.9,2.888l.032.161-1.457-.411a12.619,12.619,0,0,0-.7-2.106,14.576,14.576,0,0,0-.772-1.549H22.879a17.6,17.6,0,0,1,1.129,2.283c-.557-.153-1.111-.3-1.656-.446a17.694,17.694,0,0,0-1.038-1.837H15.936v.917l-.164.059A3.625,3.625,0,0,0,14.6,10V8.3H9.221A13.749,13.749,0,0,0,6.9,14.6h6.876q.269.664.562,1.345H6.89a12.761,12.761,0,0,0,2.119,6.3h5.6v-5.7c.428.976.879,1.96,1.345,2.958v2.735h1.28c.207.446.411.89.616,1.345h-1.9V28.3a33.235,33.235,0,0,0,2.832-2.595q.282.67.557,1.345Zm11.525-.688a1.248,1.248,0,0,1-.315.212h-.022a1.113,1.113,0,0,1-1.172-.161L26.23,23.758l-1.076,2.627a3.48,3.48,0,0,1-.32.605,2.447,2.447,0,0,1-.406.473,1.285,1.285,0,0,1-2.017-.221,2.493,2.493,0,0,1-.247-.438c-1.855-4.7-4.372-9.385-6.255-14.091a.836.836,0,0,1,.938-1.151c4.51.834,10.353,2.74,14.938,3.956,1.425.376,1.656,1.632.605,2.606a3.3,3.3,0,0,1-.538.409c-.807.457-1.613.987-2.42,1.471l3.106,2.662a1.146,1.146,0,0,1,.269.339v.022a1.149,1.149,0,0,1,.1.4h0a1.146,1.146,0,0,1-.043.414,1.182,1.182,0,0,1-.194.374A25.429,25.429,0,0,1,30.857,26.353Zm-.807-1.033,1.5-1.764a39.356,39.356,0,0,1-3.789-3.3.648.648,0,0,1,.223-.874c.984-.538,2.248-1.307,3.181-1.928a2.236,2.236,0,0,0,.328-.239,1.188,1.188,0,0,0,.2-.234l.043-.081-.083-.048a1.054,1.054,0,0,0-.2-.07L17.479,13.069l5.87,13.214a1.286,1.286,0,0,0,.1.188l.059.078.075-.054a1.208,1.208,0,0,0,.2-.239,2.028,2.028,0,0,0,.183-.358c.438-1.076.938-2.547,1.452-3.542l.062-.086a.645.645,0,0,1,.906-.073l3.668,3.111Zm-16.57,3.773A28.384,28.384,0,0,1,8.3,23.586H4.077a13.848,13.848,0,0,0,3.391,3.227A14.2,14.2,0,0,0,9.858,28.1a.036.036,0,0,1,.03.019,13.213,13.213,0,0,0,2.592.807c.331.065.67.121,1.008.167ZM3.2,22.247H7.449a13.608,13.608,0,0,1-1.882-6.3H1.345a15.007,15.007,0,0,0,.269,2.135,12.968,12.968,0,0,0,.807,2.627,14.53,14.53,0,0,0,.769,1.549ZM1.345,14.6H5.58A14.623,14.623,0,0,1,7.669,8.3H3.2A14.54,14.54,0,0,0,2.42,9.85a.031.031,0,0,1-.019.027,13.421,13.421,0,0,0-.807,2.595A13.844,13.844,0,0,0,1.326,14.6Zm2.724-7.64H8.53a31.656,31.656,0,0,1,5.039-5.526c-.374.046-.742.1-1.1.175A12.993,12.993,0,0,0,9.85,2.42,14.848,14.848,0,0,0,7.46,3.711,13.848,13.848,0,0,0,4.069,6.938h0ZM16.976,1.439a30.825,30.825,0,0,1,5.042,5.526h4.464a13.064,13.064,0,0,0-1.345-1.549A13.379,13.379,0,0,0,23.086,3.73a14.324,14.324,0,0,0-2.38-1.293.035.035,0,0,1-.027-.016,13.213,13.213,0,0,0-2.592-.807c-.366-.073-.734-.129-1.1-.175h-.011Zm-1.033.871V6.965h4.434A31.1,31.1,0,0,0,15.944,2.31ZM14.6,28.295V23.586H9.95a28.4,28.4,0,0,0,4.666,4.709Zm0-21.33V2.31A31.267,31.267,0,0,0,10.17,6.965Z" transform="translate(0 0)" fill="#39c"/>
</svg>
